# xmcd CD database file
#
# Track frame offsets:
#	150
#	13532
#	22857
#	35722
#	45912
#	62390
#	69980
#	82287
#	92165
#	102662
#	111182
#	121140
#	130395
#	140025
#	153472
#	161297
#	174057
#	186137
#	195085
#	203985
#	217535
#	228637
#	239557
#	252255
#	260887
#
# Disc length: 3638 seconds
#
# Revision: 1
# Processed by: cddbd v1.5.1PL0 Copyright (c) Steve Scherf et al.
# Submitted via: CDex 1.51
#
DISCID=530e3419
DTITLE=Marty Robbins - Island Woman
DYEAR=1991
DGENRE=Country
TTITLE0=Girl From Spanish Town (3)
TTITLE1=Kingston Girl (2)
TTITLE2=Sweet Bird Of Paradise
TTITLE3=Jamaica Farewell
TTITLE4=Calypso Girl
TTITLE5=Back To Montego Bay
TTITLE6=Girl From Spanish Town (1)
TTITLE7=Kingston Girl (1)
TTITLE8=A Woman Gets Her Way
TTITLE9=The Mango Song
TTITLE10=Calypso Vacation
TTITLE11=Blue Sea
TTITLE12=Bahama Mama
TTITLE13=Tahitian Boy
TTITLE14=Native Girl
TTITLE15=Girl From Spanish Town (2)
TTITLE16=Yours (Quiereme Me Mucho)
TTITLE17=You Belong To My Heart
TTITLE18=La Borrachita
TTITLE19=La Paloma
TTITLE20=Yours (Quiereme Me Mucho) (spanish)
TTITLE21=Adios Marquita Linda
TTITLE22=Maria Elena
TTITLE23=Amor
TTITLE24=Camelia
EXTD=YEAR: 1991
EXTT0=
EXTT1=
EXTT2=
EXTT3=
EXTT4=
EXTT5=
EXTT6=
EXTT7=
EXTT8=
EXTT9=
EXTT10=
EXTT11=
EXTT12=
EXTT13=
EXTT14=
EXTT15=
EXTT16=
EXTT17=
EXTT18=
EXTT19=
EXTT20=
EXTT21=
EXTT22=
EXTT23=
EXTT24=
PLAYORDER=
